# File created by Blade
# Date/Time:  Wed Apr 08 14:10:35 2015
# Frame Rate: 120.000 fps
#------------------------------------------------------
:FULLY-SPECIFIED
:DEGREES
544
root 1.592404 31.610168 18.323627 24.024541 1.702578 -2.555402
Spine 1.861967 -2.449694 1.037457
Head -1.945098 -5.965407 2.062961
LeftShoulder -19.090102 44.328456 16.141160
LeftArm 63.444789 -39.375101 -75.307378
LeftForeArm -8.264057 0.000000 4.602815
LeftHand 17.549912 -0.000000 22.723171
LeftHandThumb1 -26.253704 0.000000 33.147579
RightShoulder -3.168448 0.259319 -22.028616
RightArm 18.371490 3.724180 71.041424
RightForeArm -8.121674 -0.000000 25.345770
RightHand 15.153232 -0.000000 -16.814105
RightHandThumb1 -24.326973 -0.000000 -32.862282
LeftUpLeg -46.712534 -4.788029 1.319263
LeftLeg 39.047728 -0.000000 -0.000000
LeftFoot -6.666527 2.374806 -12.087594
LeftToeBase -28.653863 -0.000000 0.000000
RightUpLeg -39.714786 6.996104 0.585814
RightLeg 46.872530 -0.000000 -0.000000
RightFoot -22.271168 -15.902323 11.276120
RightToeBase -12.018832 -0.000000 0.000000
545
root 1.572046 31.638980 18.387035 24.013998 1.784954 -2.657458
Spine 1.835305 -2.420693 0.966553
Head -2.068676 -6.062154 2.231977
LeftShoulder -18.610985 43.954093 16.621838
LeftArm 63.578808 -38.793394 -75.463204
LeftForeArm -7.540608 -0.000000 4.477542
LeftHand 17.605152 -0.000000 22.083686
LeftHandThumb1 -26.253704 0.000000 33.147579
RightShoulder -3.341090 0.212313 -21.956708
RightArm 18.082662 3.428861 70.987460
RightForeArm -8.067931 -0.000000 24.960098
RightHand 15.061120 0.000000 -16.388649
RightHandThumb1 -24.326973 -0.000000 -32.862282
LeftUpLeg -46.605228 -4.550814 1.299226
LeftLeg 39.047136 -0.000000 -0.000000
LeftFoot -6.549882 2.324453 -12.039095
LeftToeBase -28.709938 -0.000000 0.000000
RightUpLeg -39.543652 7.236715 0.702418
RightLeg 46.792315 -0.000000 -0.000000
RightFoot -22.323042 -16.136835 11.467736
RightToeBase -11.566692 -0.000000 0.000000
546
root 1.554611 31.679251 18.443865 24.048547 1.881337 -2.687272
Spine 1.758625 -2.558229 0.817522
Head -2.152678 -6.095823 2.425205
LeftShoulder -18.220414 43.502654 17.021578
LeftArm 63.311406 -38.125531 -75.121514
LeftForeArm -7.108087 -0.000000 4.369191
LeftHand 17.664156 -0.000000 21.632069
LeftHandThumb1 -26.253704 0.000000 33.147579
RightShoulder -3.446971 0.184278 -21.882183
RightArm 17.858865 3.208649 70.929012
RightForeArm -8.088921 -0.000000 24.488396
RightHand 15.121447 -0.000000 -16.024417
RightHandThumb1 -24.326973 -0.000000 -32.862282
LeftUpLeg -46.481816 -4.402558 1.241350
LeftLeg 38.874478 -0.000000 -0.000000
LeftFoot -6.273061 2.352879 -11.809621
LeftToeBase -28.982209 -0.000000 0.000000
RightUpLeg -39.410689 7.431893 0.754293
RightLeg 46.667043 -0.000000 -0.000000
RightFoot -22.289364 -16.446654 11.544858
RightToeBase -10.751158 -0.000000 0.000000
547
root 1.541775 31.726760 18.500461 24.089504 2.137721 -2.755290
Spine 1.666062 -2.876775 0.815016
Head -2.271852 -6.081777 2.556294
LeftShoulder -17.939738 43.098453 17.257612
LeftArm 63.118759 -37.510743 -74.883182
LeftForeArm -6.495202 0.000000 4.398741
LeftHand 17.648220 -0.000000 21.168671
LeftHandThumb1 -26.253704 0.000000 33.147579
RightShoulder -3.530182 0.238107 -21.856575
RightArm 17.561148 3.102118 70.810557
RightForeArm -8.130026 0.000000 23.996830
RightHand 15.149331 0.000000 -15.427516
RightHandThumb1 -24.326973 -0.000000 -32.862282
LeftUpLeg -46.343241 -4.419895 1.311968
LeftLeg 38.634262 -0.000000 -0.000000
LeftFoot -6.031644 2.356865 -11.710399
LeftToeBase -28.947025 -0.000000 0.000000
RightUpLeg -39.236927 7.476939 0.901340
RightLeg 46.462703 -0.000000 -0.000000
RightFoot -22.227231 -16.731812 11.657303
RightToeBase -10.611644 -0.000000 0.000000
548
root 1.535930 31.779501 18.546025 24.232935 2.289602 -2.688074
Spine 1.480976 -3.207641 0.619540
Head -2.384378 -6.002528 2.737574
LeftShoulder -17.653835 42.664998 17.494560
LeftArm 62.837854 -36.962498 -74.600150
LeftForeArm -6.115998 -0.000000 4.413556
LeftHand 17.628640 -0.000000 21.189213
LeftHandThumb1 -26.253704 0.000000 33.147579
RightShoulder -3.596411 0.244154 -21.805787
RightArm 17.338967 3.053525 70.643294
RightForeArm -8.049294 -0.000000 23.593389
RightHand 14.715029 0.000000 -14.773763
RightHandThumb1 -24.326973 -0.000000 -32.862282
LeftUpLeg -46.217014 -4.467613 1.257811
LeftLeg 38.206324 -0.000000 -0.000000
LeftFoot -5.711533 2.420855 -11.551287
LeftToeBase -28.989342 -0.000000 0.000000
RightUpLeg -39.226227 7.501054 0.864075
RightLeg 46.335619 -0.000000 -0.000000
RightFoot -22.070129 -16.890783 11.722325
RightToeBase -10.339055 -0.000000 0.000000
549
root 1.528384 31.833830 18.590468 24.365475 2.502530 -2.612897
Spine 1.307478 -3.583422 0.443863
Head -2.501290 -6.011571 2.905815
LeftShoulder -17.347332 42.284301 17.716612
LeftArm 62.681373 -36.522133 -74.466872
LeftForeArm -5.710544 -0.000000 4.430201
LeftHand 17.510359 -0.000000 21.135436
LeftHandThumb1 -26.253704 0.000000 33.147579
RightShoulder -3.673683 0.265256 -21.761691
RightArm 17.094535 3.051145 70.385107
RightForeArm -7.871864 -0.000000 23.155895
RightHand 14.576867 -0.000000 -14.628235
RightHandThumb1 -24.326973 -0.000000 -32.862282
LeftUpLeg -46.023938 -4.681115 1.287900
LeftLeg 37.644271 -0.000000 -0.000000
LeftFoot -5.397145 2.571431 -11.470524
LeftToeBase -29.159111 -0.000000 0.000000
RightUpLeg -39.193089 7.438706 0.844303
RightLeg 46.191884 -0.000000 -0.000000
RightFoot -21.944022 -16.950692 11.808248
RightToeBase -9.887589 -0.000000 0.000000
550
root 1.517199 31.889362 18.635799 24.499313 2.761282 -2.584042
Spine 1.129143 -4.011463 0.346029
Head -2.653312 -6.023451 3.070400
LeftShoulder -17.105484 41.916850 17.856581
LeftArm 62.563751 -36.159448 -74.420344
LeftForeArm -5.310031 0.000000 4.537354
LeftHand 17.605601 0.000000 20.938350
LeftHandThumb1 -26.253704 0.000000 33.147579
RightShoulder -3.696124 0.235765 -21.743551
RightArm 16.851766 3.286943 70.113794
RightForeArm -7.756679 0.000000 22.720840
RightHand 14.578527 0.000000 -14.322594
RightHandThumb1 -24.326973 -0.000000 -32.862282
LeftUpLeg -45.784683 -5.009461 1.435127
LeftLeg 37.000094 -0.000000 -0.000000
LeftFoot -5.204174 2.771868 -11.490468
LeftToeBase -28.938557 -0.000000 0.000000
RightUpLeg -39.134471 7.333603 0.889753
RightLeg 45.991890 -0.000000 -0.000000
RightFoot -21.795562 -17.007352 11.849204
RightToeBase -9.522049 -0.000000 0.000000
